<svg width="128" height="128" viewBox="0 0 128 128" fill="none" xmlns="http://www.w3.org/2000/svg">
  <defs>
    <linearGradient id="bg" x1="20" y1="16" x2="108" y2="112" gradientUnits="userSpaceOnUse">
      <stop stop-color="#FFF7E7"/>
      <stop offset="1" stop-color="#F2E2B6"/>
    </linearGradient>
    <linearGradient id="glass" x1="64" y1="28" x2="64" y2="100" gradientUnits="userSpaceOnUse">
      <stop stop-color="#5E8B54"/>
      <stop offset="1" stop-color="#2F5D44"/>
    </linearGradient>
  </defs>

  <rect x="8" y="8" width="112" height="112" rx="28" fill="url(#bg)"/>
  <rect x="8" y="8" width="112" height="112" rx="28" stroke="#31543A" stroke-width="4"/>

  <circle cx="95" cy="33" r="8" fill="#F3BE4D" fill-opacity="0.7"/>

  <path
    d="M38 30H90M38 98H90M46 34C46 44 52 49 64 57C76 49 82 44 82 34M46 94C46 84 52 79 64 71C76 79 82 84 82 94"
    stroke="url(#glass)"
    stroke-width="6"
    stroke-linecap="round"
    stroke-linejoin="round"
  />

  <path d="M64 57V70" stroke="#31543A" stroke-width="5" stroke-linecap="round"/>

  <circle cx="58" cy="46" r="3.5" fill="#E1A93E"/>
  <circle cx="66" cy="42" r="3.5" fill="#E1A93E"/>
  <circle cx="70" cy="49" r="3.5" fill="#E1A93E"/>

  <circle cx="64" cy="63" r="3" fill="#E1A93E"/>
  <circle cx="64" cy="69" r="3" fill="#E1A93E"/>

  <path d="M64 85V72" stroke="#2F7A48" stroke-width="4.5" stroke-linecap="round"/>
  <path d="M64 77C57 71 48 71 44 79C50 83 58 83 64 77Z" fill="#6DAA62"/>
  <path d="M64 80C71 73 80 73 84 81C78 86 70 86 64 80Z" fill="#78B86C"/>

  <path d="M52 90C56 87 60 86 64 86C68 86 72 87 76 90" stroke="#A7792E" stroke-width="4" stroke-linecap="round"/>
</svg>
